# This file uses centimeters as units for non-parametric coordinates.

mtllib superbump_plat.mtl
g default
v -1.609017 -0.500000 2.723985
v -1.206763 -0.500000 2.723985
v -0.804508 -0.500000 2.723985
v -0.402254 -0.500000 2.723985
v 0.000000 -0.500000 2.723985
v 0.402254 -0.500000 2.723985
v 0.804508 -0.500000 2.723985
v 1.206763 -0.500000 2.723985
v 1.609017 -0.500000 2.723985
v -1.609017 0.500000 2.723985
v -1.206763 0.500000 2.723985
v -0.804508 0.500000 2.723985
v -0.402254 0.500000 2.723985
v 0.000000 0.500000 2.723985
v 0.402254 0.500000 2.723985
v 0.804508 0.500000 2.723985
v 1.206763 0.500000 2.723985
v 1.609017 0.500000 2.723985
v -1.609017 0.500000 2.042989
v -1.206763 0.838743 2.042989
v -0.804508 0.500000 2.042989
v -0.402254 0.838743 2.042989
v 0.000000 0.500000 2.042989
v 0.402254 0.838743 2.042989
v 0.804508 0.500000 2.042989
v 1.206763 0.838743 2.042989
v 1.609017 0.500000 2.042989
v -1.609017 0.500000 1.361992
v -1.206763 0.500000 1.361992
v -0.804508 0.500000 1.361992
v -0.402254 0.500000 1.361992
v 0.000000 0.500000 1.361992
v 0.402254 0.500000 1.361992
v 0.804508 0.500000 1.361992
v 1.206763 0.500000 1.361992
v 1.609017 0.500000 1.361992
v -1.609017 0.500000 0.680996
v -1.206763 0.838743 0.680996
v -0.804508 0.500000 0.680996
v -0.402254 0.838743 0.680996
v 0.000000 0.500000 0.680996
v 0.402254 0.838743 0.680996
v 0.804508 0.500000 0.680996
v 1.206763 0.838743 0.680996
v 1.609017 0.500000 0.680996
v -1.609017 0.500000 0.000000
v -1.206763 0.500000 0.000000
v -0.804508 0.500000 0.000000
v -0.402254 0.500000 0.000000
v 0.000000 0.500000 0.000000
v 0.402254 0.500000 0.000000
v 0.804508 0.500000 0.000000
v 1.206763 0.500000 0.000000
v 1.609017 0.500000 0.000000
v -1.609017 0.500000 -0.680996
v -1.206763 0.838743 -0.680996
v -0.804508 0.500000 -0.680996
v -0.402254 0.838743 -0.680996
v 0.000000 0.500000 -0.680996
v 0.402254 0.838743 -0.680996
v 0.804508 0.500000 -0.680996
v 1.206763 0.838743 -0.680996
v 1.609017 0.500000 -0.680996
v -1.609017 0.500000 -1.361992
v -1.206763 0.500000 -1.361992
v -0.804508 0.500000 -1.361992
v -0.402254 0.500000 -1.361992
v 0.000000 0.500000 -1.361992
v 0.402254 0.500000 -1.361992
v 0.804508 0.500000 -1.361992
v 1.206763 0.500000 -1.361992
v 1.609017 0.500000 -1.361992
v -1.609017 0.500000 -2.042989
v -1.206763 0.838743 -2.042989
v -0.804508 0.500000 -2.042989
v -0.402254 0.838743 -2.042989
v 0.000000 0.500000 -2.042989
v 0.402254 0.838743 -2.042989
v 0.804508 0.500000 -2.042989
v 1.206763 0.838743 -2.042989
v 1.609017 0.500000 -2.042989
v -1.609017 0.500000 -2.723985
v -1.206763 0.500000 -2.723985
v -0.804508 0.500000 -2.723985
v -0.402254 0.500000 -2.723985
v 0.000000 0.500000 -2.723985
v 0.402254 0.500000 -2.723985
v 0.804508 0.500000 -2.723985
v 1.206763 0.500000 -2.723985
v 1.609017 0.500000 -2.723985
v -1.609017 -0.500000 -2.723985
v -1.206763 -0.500000 -2.723985
v -0.804508 -0.500000 -2.723985
v -0.402254 -0.500000 -2.723985
v 0.000000 -0.500000 -2.723985
v 0.402254 -0.500000 -2.723985
v 0.804508 -0.500000 -2.723985
v 1.206763 -0.500000 -2.723985
v 1.609017 -0.500000 -2.723985
v -1.609017 -0.500000 -2.042989
v -1.206763 -0.500000 -2.042989
v -0.804508 -0.500000 -2.042989
v -0.402254 -0.500000 -2.042989
v 0.000000 -0.500000 -2.042989
v 0.402254 -0.500000 -2.042989
v 0.804508 -0.500000 -2.042989
v 1.206763 -0.500000 -2.042989
v 1.609017 -0.500000 -2.042989
v -1.609017 -0.500000 -1.361992
v -1.206763 -0.500000 -1.361992
v -0.804508 -0.500000 -1.361992
v -0.402254 -0.500000 -1.361992
v 0.000000 -0.500000 -1.361992
v 0.402254 -0.500000 -1.361992
v 0.804508 -0.500000 -1.361992
v 1.206763 -0.500000 -1.361992
v 1.609017 -0.500000 -1.361992
v -1.609017 -0.500000 -0.680996
v -1.206763 -0.500000 -0.680996
v -0.804508 -0.500000 -0.680996
v -0.402254 -0.500000 -0.680996
v 0.000000 -0.500000 -0.680996
v 0.402254 -0.500000 -0.680996
v 0.804508 -0.500000 -0.680996
v 1.206763 -0.500000 -0.680996
v 1.609017 -0.500000 -0.680996
v -1.609017 -0.500000 0.000000
v -1.206763 -0.500000 0.000000
v -0.804508 -0.500000 0.000000
v -0.402254 -0.500000 0.000000
v 0.000000 -0.500000 0.000000
v 0.402254 -0.500000 0.000000
v 0.804508 -0.500000 0.000000
v 1.206763 -0.500000 0.000000
v 1.609017 -0.500000 0.000000
v -1.609017 -0.500000 0.680996
v -1.206763 -0.500000 0.680996
v -0.804508 -0.500000 0.680996
v -0.402254 -0.500000 0.680996
v 0.000000 -0.500000 0.680996
v 0.402254 -0.500000 0.680996
v 0.804508 -0.500000 0.680996
v 1.206763 -0.500000 0.680996
v 1.609017 -0.500000 0.680996
v -1.609017 -0.500000 1.361992
v -1.206763 -0.500000 1.361992
v -0.804508 -0.500000 1.361992
v -0.402254 -0.500000 1.361992
v 0.000000 -0.500000 1.361992
v 0.402254 -0.500000 1.361992
v 0.804508 -0.500000 1.361992
v 1.206763 -0.500000 1.361992
v 1.609017 -0.500000 1.361992
v -1.609017 -0.500000 2.042989
v -1.206763 -0.500000 2.042989
v -0.804508 -0.500000 2.042989
v -0.402254 -0.500000 2.042989
v 0.000000 -0.500000 2.042989
v 0.402254 -0.500000 2.042989
v 0.804508 -0.500000 2.042989
v 1.206763 -0.500000 2.042989
v 1.609017 -0.500000 2.042989
vt 0.375000 0.000000
vt 0.406250 0.000000
vt 0.437500 0.000000
vt 0.468750 0.000000
vt 0.500000 0.000000
vt 0.531250 0.000000
vt 0.562500 0.000000
vt 0.593750 0.000000
vt 0.625000 0.000000
vt 0.375000 0.250000
vt 0.406250 0.250000
vt 0.437500 0.250000
vt 0.468750 0.250000
vt 0.500000 0.250000
vt 0.531250 0.250000
vt 0.562500 0.250000
vt 0.593750 0.250000
vt 0.625000 0.250000
vt 0.375000 0.281250
vt 0.406250 0.281250
vt 0.437500 0.281250
vt 0.468750 0.281250
vt 0.500000 0.281250
vt 0.531250 0.281250
vt 0.562500 0.281250
vt 0.593750 0.281250
vt 0.625000 0.281250
vt 0.375000 0.312500
vt 0.406250 0.312500
vt 0.437500 0.312500
vt 0.468750 0.312500
vt 0.500000 0.312500
vt 0.531250 0.312500
vt 0.562500 0.312500
vt 0.593750 0.312500
vt 0.625000 0.312500
vt 0.375000 0.343750
vt 0.406250 0.343750
vt 0.437500 0.343750
vt 0.468750 0.343750
vt 0.500000 0.343750
vt 0.531250 0.343750
vt 0.562500 0.343750
vt 0.593750 0.343750
vt 0.625000 0.343750
vt 0.375000 0.375000
vt 0.406250 0.375000
vt 0.437500 0.375000
vt 0.468750 0.375000
vt 0.500000 0.375000
vt 0.531250 0.375000
vt 0.562500 0.375000
vt 0.593750 0.375000
vt 0.625000 0.375000
vt 0.375000 0.406250
vt 0.406250 0.406250
vt 0.437500 0.406250
vt 0.468750 0.406250
vt 0.500000 0.406250
vt 0.531250 0.406250
vt 0.562500 0.406250
vt 0.593750 0.406250
vt 0.625000 0.406250
vt 0.375000 0.437500
vt 0.406250 0.437500
vt 0.437500 0.437500
vt 0.468750 0.437500
vt 0.500000 0.437500
vt 0.531250 0.437500
vt 0.562500 0.437500
vt 0.593750 0.437500
vt 0.625000 0.437500
vt 0.375000 0.468750
vt 0.406250 0.468750
vt 0.437500 0.468750
vt 0.468750 0.468750
vt 0.500000 0.468750
vt 0.531250 0.468750
vt 0.562500 0.468750
vt 0.593750 0.468750
vt 0.625000 0.468750
vt 0.375000 0.500000
vt 0.406250 0.500000
vt 0.437500 0.500000
vt 0.468750 0.500000
vt 0.500000 0.500000
vt 0.531250 0.500000
vt 0.562500 0.500000
vt 0.593750 0.500000
vt 0.625000 0.500000
vt 0.375000 0.750000
vt 0.406250 0.750000
vt 0.437500 0.750000
vt 0.468750 0.750000
vt 0.500000 0.750000
vt 0.531250 0.750000
vt 0.562500 0.750000
vt 0.593750 0.750000
vt 0.625000 0.750000
vt 0.375000 0.781250
vt 0.406250 0.781250
vt 0.437500 0.781250
vt 0.468750 0.781250
vt 0.500000 0.781250
vt 0.531250 0.781250
vt 0.562500 0.781250
vt 0.593750 0.781250
vt 0.625000 0.781250
vt 0.375000 0.812500
vt 0.406250 0.812500
vt 0.437500 0.812500
vt 0.468750 0.812500
vt 0.500000 0.812500
vt 0.531250 0.812500
vt 0.562500 0.812500
vt 0.593750 0.812500
vt 0.625000 0.812500
vt 0.375000 0.843750
vt 0.406250 0.843750
vt 0.437500 0.843750
vt 0.468750 0.843750
vt 0.500000 0.843750
vt 0.531250 0.843750
vt 0.562500 0.843750
vt 0.593750 0.843750
vt 0.625000 0.843750
vt 0.375000 0.875000
vt 0.406250 0.875000
vt 0.437500 0.875000
vt 0.468750 0.875000
vt 0.500000 0.875000
vt 0.531250 0.875000
vt 0.562500 0.875000
vt 0.593750 0.875000
vt 0.625000 0.875000
vt 0.375000 0.906250
vt 0.406250 0.906250
vt 0.437500 0.906250
vt 0.468750 0.906250
vt 0.500000 0.906250
vt 0.531250 0.906250
vt 0.562500 0.906250
vt 0.593750 0.906250
vt 0.625000 0.906250
vt 0.375000 0.937500
vt 0.406250 0.937500
vt 0.437500 0.937500
vt 0.468750 0.937500
vt 0.500000 0.937500
vt 0.531250 0.937500
vt 0.562500 0.937500
vt 0.593750 0.937500
vt 0.625000 0.937500
vt 0.375000 0.968750
vt 0.406250 0.968750
vt 0.437500 0.968750
vt 0.468750 0.968750
vt 0.500000 0.968750
vt 0.531250 0.968750
vt 0.562500 0.968750
vt 0.593750 0.968750
vt 0.625000 0.968750
vt 0.375000 1.000000
vt 0.406250 1.000000
vt 0.437500 1.000000
vt 0.468750 1.000000
vt 0.500000 1.000000
vt 0.531250 1.000000
vt 0.562500 1.000000
vt 0.593750 1.000000
vt 0.625000 1.000000
vt 0.875000 0.000000
vt 0.843750 0.000000
vt 0.812500 0.000000
vt 0.781250 0.000000
vt 0.750000 0.000000
vt 0.718750 0.000000
vt 0.687500 0.000000
vt 0.656250 0.000000
vt 0.875000 0.250000
vt 0.843750 0.250000
vt 0.812500 0.250000
vt 0.781250 0.250000
vt 0.750000 0.250000
vt 0.718750 0.250000
vt 0.687500 0.250000
vt 0.656250 0.250000
vt 0.125000 0.000000
vt 0.156250 0.000000
vt 0.187500 0.000000
vt 0.218750 0.000000
vt 0.250000 0.000000
vt 0.281250 0.000000
vt 0.312500 0.000000
vt 0.343750 0.000000
vt 0.125000 0.250000
vt 0.156250 0.250000
vt 0.187500 0.250000
vt 0.218750 0.250000
vt 0.250000 0.250000
vt 0.281250 0.250000
vt 0.312500 0.250000
vt 0.343750 0.250000
vn 0.000000 0.000000 1.000000
vn 0.000000 0.000000 1.000000
vn 0.000000 0.000000 1.000000
vn 0.000000 0.000000 1.000000
vn 0.000000 0.000000 1.000000
vn 0.000000 0.000000 1.000000
vn 0.000000 0.000000 1.000000
vn 0.000000 0.000000 1.000000
vn 0.000000 0.000000 1.000000
vn 0.000000 0.000000 1.000000
vn 0.000000 0.000000 1.000000
vn 0.000000 0.000000 1.000000
vn 0.000000 0.000000 1.000000
vn 0.000000 0.000000 1.000000
vn 0.000000 0.000000 1.000000
vn 0.000000 0.000000 1.000000
vn 0.000000 0.000000 1.000000
vn 0.000000 0.000000 1.000000
vn -0.378250 0.898336 0.223426
vn 0.000000 0.970436 0.241359
vn -0.000000 1.000000 0.000000
vn -0.388060 0.921634 0.000000
vn 0.000000 0.970436 0.241359
vn -0.000000 1.000000 0.000000
vn 0.000000 0.970436 0.241359
vn -0.000000 1.000000 0.000000
vn 0.000000 0.970436 0.241359
vn -0.000000 1.000000 0.000000
vn 0.000000 0.970436 0.241359
vn -0.000000 1.000000 0.000000
vn 0.000000 0.970436 0.241359
vn -0.000000 1.000000 0.000000
vn 0.000000 0.970436 0.241359
vn 0.000000 1.000000 0.000000
vn 0.378250 0.898336 0.223426
vn 0.388060 0.921634 0.000000
vn -0.000000 1.000000 0.000000
vn -0.388060 0.921634 0.000000
vn -0.000000 1.000000 0.000000
vn -0.000000 1.000000 0.000000
vn -0.000000 1.000000 0.000000
vn -0.000000 1.000000 0.000000
vn -0.000000 1.000000 0.000000
vn 0.000000 1.000000 0.000000
vn 0.388060 0.921634 0.000000
vn -0.000000 1.000000 0.000000
vn -0.388060 0.921634 0.000000
vn 0.000000 1.000000 0.000000
vn 0.000000 1.000000 0.000000
vn 0.000000 1.000000 0.000000
vn 0.000000 1.000000 0.000000
vn 0.000000 1.000000 0.000000
vn 0.000000 1.000000 0.000000
vn 0.388060 0.921634 0.000000
vn -0.000000 1.000000 0.000000
vn -0.388060 0.921634 0.000000
vn 0.000000 1.000000 0.000000
vn 0.000000 1.000000 0.000000
vn 0.000000 1.000000 0.000000
vn 0.000000 1.000000 0.000000
vn 0.000000 1.000000 0.000000
vn 0.000000 1.000000 0.000000
vn 0.388060 0.921634 0.000000
vn -0.000000 1.000000 0.000000
vn -0.388060 0.921634 0.000000
vn 0.000000 1.000000 0.000000
vn 0.000000 1.000000 0.000000
vn 0.000000 1.000000 0.000000
vn 0.000000 1.000000 0.000000
vn 0.000000 1.000000 0.000000
vn 0.000000 1.000000 0.000000
vn 0.388060 0.921634 0.000000
vn -0.000000 1.000000 0.000000
vn -0.388060 0.921634 0.000000
vn -0.000000 1.000000 0.000000
vn -0.000000 1.000000 0.000000
vn -0.000000 1.000000 0.000000
vn -0.000000 1.000000 0.000000
vn -0.000000 1.000000 0.000000
vn 0.000000 1.000000 0.000000
vn 0.388060 0.921634 0.000000
vn -0.000000 1.000000 -0.000000
vn -0.388060 0.921634 -0.000000
vn -0.000000 1.000000 -0.000000
vn -0.000000 1.000000 -0.000000
vn -0.000000 1.000000 -0.000000
vn -0.000000 1.000000 -0.000000
vn -0.000000 1.000000 -0.000000
vn 0.000000 1.000000 -0.000000
vn 0.388060 0.921634 -0.000000
vn 0.000000 0.970436 -0.241359
vn -0.378250 0.898336 -0.223426
vn 0.000000 0.970436 -0.241359
vn 0.000000 0.970436 -0.241359
vn 0.000000 0.970436 -0.241359
vn 0.000000 0.970436 -0.241359
vn 0.000000 0.970436 -0.241359
vn 0.000000 0.970436 -0.241359
vn 0.378250 0.898336 -0.223426
vn 0.000000 0.000000 -1.000000
vn 0.000000 0.000000 -1.000000
vn 0.000000 0.000000 -1.000000
vn 0.000000 0.000000 -1.000000
vn 0.000000 0.000000 -1.000000
vn 0.000000 0.000000 -1.000000
vn 0.000000 0.000000 -1.000000
vn 0.000000 0.000000 -1.000000
vn 0.000000 0.000000 -1.000000
vn 0.000000 0.000000 -1.000000
vn 0.000000 0.000000 -1.000000
vn 0.000000 0.000000 -1.000000
vn 0.000000 0.000000 -1.000000
vn 0.000000 0.000000 -1.000000
vn 0.000000 0.000000 -1.000000
vn 0.000000 0.000000 -1.000000
vn 0.000000 0.000000 -1.000000
vn 0.000000 0.000000 -1.000000
vn 0.000000 -1.000000 0.000000
vn 0.000000 -1.000000 0.000000
vn 0.000000 -1.000000 0.000000
vn 0.000000 -1.000000 0.000000
vn 0.000000 -1.000000 0.000000
vn 0.000000 -1.000000 0.000000
vn 0.000000 -1.000000 0.000000
vn 0.000000 -1.000000 0.000000
vn 0.000000 -1.000000 0.000000
vn 0.000000 -1.000000 0.000000
vn 0.000000 -1.000000 0.000000
vn 0.000000 -1.000000 0.000000
vn 0.000000 -1.000000 0.000000
vn 0.000000 -1.000000 0.000000
vn 0.000000 -1.000000 0.000000
vn 0.000000 -1.000000 0.000000
vn 0.000000 -1.000000 0.000000
vn 0.000000 -1.000000 0.000000
vn 0.000000 -1.000000 0.000000
vn 0.000000 -1.000000 0.000000
vn 0.000000 -1.000000 0.000000
vn 0.000000 -1.000000 0.000000
vn 0.000000 -1.000000 0.000000
vn 0.000000 -1.000000 0.000000
vn 0.000000 -1.000000 0.000000
vn 0.000000 -1.000000 0.000000
vn 0.000000 -1.000000 0.000000
vn 0.000000 -1.000000 0.000000
vn 0.000000 -1.000000 0.000000
vn 0.000000 -1.000000 0.000000
vn 0.000000 -1.000000 0.000000
vn 0.000000 -1.000000 0.000000
vn 0.000000 -1.000000 0.000000
vn 0.000000 -1.000000 0.000000
vn 0.000000 -1.000000 0.000000
vn 0.000000 -1.000000 0.000000
vn 0.000000 -1.000000 0.000000
vn 0.000000 -1.000000 0.000000
vn 0.000000 -1.000000 0.000000
vn 0.000000 -1.000000 0.000000
vn 0.000000 -1.000000 0.000000
vn 0.000000 -1.000000 0.000000
vn 0.000000 -1.000000 0.000000
vn 0.000000 -1.000000 0.000000
vn 0.000000 -1.000000 0.000000
vn 0.000000 -1.000000 0.000000
vn 0.000000 -1.000000 0.000000
vn 0.000000 -1.000000 0.000000
vn 0.000000 -1.000000 0.000000
vn 0.000000 -1.000000 0.000000
vn 0.000000 -1.000000 0.000000
vn 0.000000 -1.000000 0.000000
vn 0.000000 -1.000000 0.000000
vn 0.000000 -1.000000 0.000000
vn 0.000000 -1.000000 0.000000
vn 0.000000 -1.000000 0.000000
vn 0.000000 -1.000000 0.000000
vn 0.000000 -1.000000 0.000000
vn 0.000000 -1.000000 0.000000
vn 0.000000 -1.000000 0.000000
vn 0.000000 -1.000000 0.000000
vn 0.000000 -1.000000 0.000000
vn 0.000000 -1.000000 0.000000
vn 0.000000 -1.000000 0.000000
vn 0.000000 -1.000000 0.000000
vn 0.000000 -1.000000 0.000000
vn 0.000000 -1.000000 0.000000
vn 0.000000 -1.000000 0.000000
vn 0.000000 -1.000000 0.000000
vn 0.000000 -1.000000 0.000000
vn 0.000000 -1.000000 0.000000
vn 0.000000 -1.000000 0.000000
vn 0.000000 -1.000000 0.000000
vn 0.000000 -1.000000 0.000000
vn 0.000000 -1.000000 0.000000
vn 0.000000 -1.000000 0.000000
vn 0.000000 -1.000000 0.000000
vn 0.000000 -1.000000 0.000000
vn 0.000000 -1.000000 0.000000
vn 0.000000 -1.000000 0.000000
vn 0.000000 -1.000000 0.000000
vn 1.000000 0.000000 0.000000
vn 1.000000 0.000000 0.000000
vn 1.000000 0.000000 0.000000
vn 1.000000 0.000000 0.000000
vn 1.000000 0.000000 0.000000
vn 1.000000 0.000000 0.000000
vn 1.000000 0.000000 0.000000
vn 1.000000 0.000000 0.000000
vn 1.000000 0.000000 0.000000
vn 1.000000 0.000000 0.000000
vn 1.000000 0.000000 0.000000
vn 1.000000 0.000000 0.000000
vn 1.000000 0.000000 0.000000
vn 1.000000 0.000000 0.000000
vn 1.000000 0.000000 0.000000
vn 1.000000 0.000000 0.000000
vn 1.000000 0.000000 0.000000
vn 1.000000 0.000000 0.000000
vn -1.000000 0.000000 0.000000
vn -1.000000 0.000000 0.000000
vn -1.000000 0.000000 0.000000
vn -1.000000 0.000000 0.000000
vn -1.000000 0.000000 0.000000
vn -1.000000 0.000000 0.000000
vn -1.000000 0.000000 0.000000
vn -1.000000 0.000000 0.000000
vn -1.000000 0.000000 0.000000
vn -1.000000 0.000000 0.000000
vn -1.000000 0.000000 0.000000
vn -1.000000 0.000000 0.000000
vn -1.000000 0.000000 0.000000
vn -1.000000 0.000000 0.000000
vn -1.000000 0.000000 0.000000
vn -1.000000 0.000000 0.000000
vn -1.000000 0.000000 0.000000
vn -1.000000 0.000000 0.000000
s 1
g pCube1
usemtl initialShadingGroup
f 1/1/1 2/2/2 11/11/3 10/10/4
f 2/2/2 3/3/5 12/12/6 11/11/3
f 3/3/5 4/4/7 13/13/8 12/12/6
f 4/4/7 5/5/9 14/14/10 13/13/8
f 5/5/9 6/6/11 15/15/12 14/14/10
f 6/6/11 7/7/13 16/16/14 15/15/12
f 7/7/13 8/8/15 17/17/16 16/16/14
f 8/8/15 9/9/17 18/18/18 17/17/16
s 2
f 10/10/19 11/11/20 20/20/21 19/19/22
f 11/11/20 12/12/23 21/21/24 20/20/21
f 12/12/23 13/13/25 22/22/26 21/21/24
f 13/13/25 14/14/27 23/23/28 22/22/26
f 14/14/27 15/15/29 24/24/30 23/23/28
f 15/15/29 16/16/31 25/25/32 24/24/30
f 16/16/31 17/17/33 26/26/34 25/25/32
f 17/17/33 18/18/35 27/27/36 26/26/34
f 19/19/22 20/20/21 29/29/37 28/28/38
f 20/20/21 21/21/24 30/30/39 29/29/37
f 21/21/24 22/22/26 31/31/40 30/30/39
f 22/22/26 23/23/28 32/32/41 31/31/40
f 23/23/28 24/24/30 33/33/42 32/32/41
f 24/24/30 25/25/32 34/34/43 33/33/42
f 25/25/32 26/26/34 35/35/44 34/34/43
f 26/26/34 27/27/36 36/36/45 35/35/44
f 28/28/38 29/29/37 38/38/46 37/37/47
f 29/29/37 30/30/39 39/39/48 38/38/46
f 30/30/39 31/31/40 40/40/49 39/39/48
f 31/31/40 32/32/41 41/41/50 40/40/49
f 32/32/41 33/33/42 42/42/51 41/41/50
f 33/33/42 34/34/43 43/43/52 42/42/51
f 34/34/43 35/35/44 44/44/53 43/43/52
f 35/35/44 36/36/45 45/45/54 44/44/53
f 37/37/47 38/38/46 47/47/55 46/46/56
f 38/38/46 39/39/48 48/48/57 47/47/55
f 39/39/48 40/40/49 49/49/58 48/48/57
f 40/40/49 41/41/50 50/50/59 49/49/58
f 41/41/50 42/42/51 51/51/60 50/50/59
f 42/42/51 43/43/52 52/52/61 51/51/60
f 43/43/52 44/44/53 53/53/62 52/52/61
f 44/44/53 45/45/54 54/54/63 53/53/62
f 46/46/56 47/47/55 56/56/64 55/55/65
f 47/47/55 48/48/57 57/57/66 56/56/64
f 48/48/57 49/49/58 58/58/67 57/57/66
f 49/49/58 50/50/59 59/59/68 58/58/67
f 50/50/59 51/51/60 60/60/69 59/59/68
f 51/51/60 52/52/61 61/61/70 60/60/69
f 52/52/61 53/53/62 62/62/71 61/61/70
f 53/53/62 54/54/63 63/63/72 62/62/71
f 55/55/65 56/56/64 65/65/73 64/64/74
f 56/56/64 57/57/66 66/66/75 65/65/73
f 57/57/66 58/58/67 67/67/76 66/66/75
f 58/58/67 59/59/68 68/68/77 67/67/76
f 59/59/68 60/60/69 69/69/78 68/68/77
f 60/60/69 61/61/70 70/70/79 69/69/78
f 61/61/70 62/62/71 71/71/80 70/70/79
f 62/62/71 63/63/72 72/72/81 71/71/80
f 64/64/74 65/65/73 74/74/82 73/73/83
f 65/65/73 66/66/75 75/75/84 74/74/82
f 66/66/75 67/67/76 76/76/85 75/75/84
f 67/67/76 68/68/77 77/77/86 76/76/85
f 68/68/77 69/69/78 78/78/87 77/77/86
f 69/69/78 70/70/79 79/79/88 78/78/87
f 70/70/79 71/71/80 80/80/89 79/79/88
f 71/71/80 72/72/81 81/81/90 80/80/89
f 73/73/83 74/74/82 83/83/91 82/82/92
f 74/74/82 75/75/84 84/84/93 83/83/91
f 75/75/84 76/76/85 85/85/94 84/84/93
f 76/76/85 77/77/86 86/86/95 85/85/94
f 77/77/86 78/78/87 87/87/96 86/86/95
f 78/78/87 79/79/88 88/88/97 87/87/96
f 79/79/88 80/80/89 89/89/98 88/88/97
f 80/80/89 81/81/90 90/90/99 89/89/98
s 3
f 82/82/100 83/83/101 92/92/102 91/91/103
f 83/83/101 84/84/104 93/93/105 92/92/102
f 84/84/104 85/85/106 94/94/107 93/93/105
f 85/85/106 86/86/108 95/95/109 94/94/107
f 86/86/108 87/87/110 96/96/111 95/95/109
f 87/87/110 88/88/112 97/97/113 96/96/111
f 88/88/112 89/89/114 98/98/115 97/97/113
f 89/89/114 90/90/116 99/99/117 98/98/115
s 4
f 91/91/118 92/92/119 101/101/120 100/100/121
f 92/92/119 93/93/122 102/102/123 101/101/120
f 93/93/122 94/94/124 103/103/125 102/102/123
f 94/94/124 95/95/126 104/104/127 103/103/125
f 95/95/126 96/96/128 105/105/129 104/104/127
f 96/96/128 97/97/130 106/106/131 105/105/129
f 97/97/130 98/98/132 107/107/133 106/106/131
f 98/98/132 99/99/134 108/108/135 107/107/133
f 100/100/121 101/101/120 110/110/136 109/109/137
f 101/101/120 102/102/123 111/111/138 110/110/136
f 102/102/123 103/103/125 112/112/139 111/111/138
f 103/103/125 104/104/127 113/113/140 112/112/139
f 104/104/127 105/105/129 114/114/141 113/113/140
f 105/105/129 106/106/131 115/115/142 114/114/141
f 106/106/131 107/107/133 116/116/143 115/115/142
f 107/107/133 108/108/135 117/117/144 116/116/143
f 109/109/137 110/110/136 119/119/145 118/118/146
f 110/110/136 111/111/138 120/120/147 119/119/145
f 111/111/138 112/112/139 121/121/148 120/120/147
f 112/112/139 113/113/140 122/122/149 121/121/148
f 113/113/140 114/114/141 123/123/150 122/122/149
f 114/114/141 115/115/142 124/124/151 123/123/150
f 115/115/142 116/116/143 125/125/152 124/124/151
f 116/116/143 117/117/144 126/126/153 125/125/152
f 118/118/146 119/119/145 128/128/154 127/127/155
f 119/119/145 120/120/147 129/129/156 128/128/154
f 120/120/147 121/121/148 130/130/157 129/129/156
f 121/121/148 122/122/149 131/131/158 130/130/157
f 122/122/149 123/123/150 132/132/159 131/131/158
f 123/123/150 124/124/151 133/133/160 132/132/159
f 124/124/151 125/125/152 134/134/161 133/133/160
f 125/125/152 126/126/153 135/135/162 134/134/161
f 127/127/155 128/128/154 137/137/163 136/136/164
f 128/128/154 129/129/156 138/138/165 137/137/163
f 129/129/156 130/130/157 139/139/166 138/138/165
f 130/130/157 131/131/158 140/140/167 139/139/166
f 131/131/158 132/132/159 141/141/168 140/140/167
f 132/132/159 133/133/160 142/142/169 141/141/168
f 133/133/160 134/134/161 143/143/170 142/142/169
f 134/134/161 135/135/162 144/144/171 143/143/170
f 136/136/164 137/137/163 146/146/172 145/145/173
f 137/137/163 138/138/165 147/147/174 146/146/172
f 138/138/165 139/139/166 148/148/175 147/147/174
f 139/139/166 140/140/167 149/149/176 148/148/175
f 140/140/167 141/141/168 150/150/177 149/149/176
f 141/141/168 142/142/169 151/151/178 150/150/177
f 142/142/169 143/143/170 152/152/179 151/151/178
f 143/143/170 144/144/171 153/153/180 152/152/179
f 145/145/173 146/146/172 155/155/181 154/154/182
f 146/146/172 147/147/174 156/156/183 155/155/181
f 147/147/174 148/148/175 157/157/184 156/156/183
f 148/148/175 149/149/176 158/158/185 157/157/184
f 149/149/176 150/150/177 159/159/186 158/158/185
f 150/150/177 151/151/178 160/160/187 159/159/186
f 151/151/178 152/152/179 161/161/188 160/160/187
f 152/152/179 153/153/180 162/162/189 161/161/188
f 154/154/182 155/155/181 2/164/190 1/163/191
f 155/155/181 156/156/183 3/165/192 2/164/190
f 156/156/183 157/157/184 4/166/193 3/165/192
f 157/157/184 158/158/185 5/167/194 4/166/193
f 158/158/185 159/159/186 6/168/195 5/167/194
f 159/159/186 160/160/187 7/169/196 6/168/195
f 160/160/187 161/161/188 8/170/197 7/169/196
f 161/161/188 162/162/189 9/171/198 8/170/197
s 5
f 108/173/199 99/172/200 90/180/201 81/181/202
f 117/174/203 108/173/199 81/181/202 72/182/204
f 126/175/205 117/174/203 72/182/204 63/183/206
f 135/176/207 126/175/205 63/183/206 54/184/208
f 144/177/209 135/176/207 54/184/208 45/185/210
f 153/178/211 144/177/209 45/185/210 36/186/212
f 162/179/213 153/178/211 36/186/212 27/187/214
f 9/9/215 162/179/213 27/187/214 18/18/216
s 6
f 91/188/217 100/189/218 73/197/219 82/196/220
f 100/189/218 109/190/221 64/198/222 73/197/219
f 109/190/221 118/191/223 55/199/224 64/198/222
f 118/191/223 127/192/225 46/200/226 55/199/224
f 127/192/225 136/193/227 37/201/228 46/200/226
f 136/193/227 145/194/229 28/202/230 37/201/228
f 145/194/229 154/195/231 19/203/232 28/202/230
f 154/195/231 1/1/233 10/10/234 19/203/232
