{
	"asset": {
		"generator": "Tilt Brush 22.3.bfe37158d",
		"version": "1.1",
		"copyright": "Unknown."
	},
	"buffers": {
		"buffer_sketch": {
			"byteLength": 991376,
			"type": "arraybuffer",
			"uri": "sketch.bin"
		}
	},
	"accessors": {
		"accessor_position_Icing_2f212815-f4d3-c1a4-681a-feeaf9c6dc37_0_i0": {
			"bufferView": "vec3BufferView",
			"byteOffset": 0,
			"byteStride": 12,
			"componentType": 5126,
			"count": 12676,
			"max": [ 0.621350527, 2.07303834, 0.524375975 ],
			"min": [ -0.360681742, 1.29718125, -0.647559464 ],
			"type": "VEC3"
		},
		"accessor_normal_Icing_2f212815-f4d3-c1a4-681a-feeaf9c6dc37_0_i0": {
			"bufferView": "vec3BufferView",
			"byteOffset": 152112,
			"byteStride": 12,
			"componentType": 5126,
			"count": 12676,
			"max": [ 0.999929667, 0.998289883, 0.999999881 ],
			"min": [ -0.999929667, -0.998289943, -0.999999881 ],
			"type": "VEC3"
		},
		"accessor_color_Icing_2f212815-f4d3-c1a4-681a-feeaf9c6dc37_0_i0": {
			"bufferView": "vec4BufferView",
			"byteOffset": 0,
			"byteStride": 16,
			"componentType": 5126,
			"count": 12676,
			"type": "VEC4"
		},
		"accessor_tangent_Icing_2f212815-f4d3-c1a4-681a-feeaf9c6dc37_0_i0": {
			"bufferView": "vec4BufferView",
			"byteOffset": 202816,
			"byteStride": 16,
			"componentType": 5126,
			"count": 12676,
			"max": [ 0.999708056, 0.999728203, 0.9985919, 1 ],
			"min": [ -0.999708056, -0.999728203, -0.999487579, 1 ],
			"type": "VEC4"
		},
		"accessor_uv0_Icing_2f212815-f4d3-c1a4-681a-feeaf9c6dc37_0_i0": {
			"bufferView": "vec3BufferView",
			"byteOffset": 304224,
			"byteStride": 12,
			"componentType": 5126,
			"count": 12676,
			"max": [ 4.88107777, 1, 0.0249999948 ],
			"min": [ -0.00966151711, 0, 0 ],
			"type": "VEC3"
		},
		"accessor_indices_0_Icing_2f212815-f4d3-c1a4-681a-feeaf9c6dc37_0_i0": {
			"bufferView": "ushortBufferView",
			"byteOffset": 0,
			"byteStride": 0,
			"componentType": 5123,
			"count": 64704,
			"max": [ 12675 ],
			"min": [ 0 ],
			"type": "SCALAR"
		}
	},
	"bufferViews": {
		"ushortBufferView": {
			"buffer": "buffer_sketch",
			"byteLength": 129408,
			"byteOffset": 0,
			"target": 34963
		},
		"vec3BufferView": {
			"buffer": "buffer_sketch",
			"byteLength": 456336,
			"byteOffset": 129408,
			"target": 34962
		},
		"vec4BufferView": {
			"buffer": "buffer_sketch",
			"byteLength": 405632,
			"byteOffset": 585744,
			"target": 34962
		}
	},
	"meshes": {
		"mesh_Icing_2f212815-f4d3-c1a4-681a-feeaf9c6dc37_0_i0": {
			"name": "mesh_Icing_2f212815-f4d3-c1a4-681a-feeaf9c6dc37_0_i0",
			"primitives": [
				{
					"attributes": {
						"POSITION": "accessor_position_Icing_2f212815-f4d3-c1a4-681a-feeaf9c6dc37_0_i0",
						"NORMAL": "accessor_normal_Icing_2f212815-f4d3-c1a4-681a-feeaf9c6dc37_0_i0",
						"COLOR": "accessor_color_Icing_2f212815-f4d3-c1a4-681a-feeaf9c6dc37_0_i0",
						"TANGENT": "accessor_tangent_Icing_2f212815-f4d3-c1a4-681a-feeaf9c6dc37_0_i0",
						"TEXCOORD_0": "accessor_uv0_Icing_2f212815-f4d3-c1a4-681a-feeaf9c6dc37_0_i0"
					},
					"indices": "accessor_indices_0_Icing_2f212815-f4d3-c1a4-681a-feeaf9c6dc37_0_i0",
					"material": "material_2f212815-f4d3-c1a4-681a-feeaf9c6dc37",
					"mode": 4
				}
			]
		}
	},
	"shaders": {
		"vertex_2f212815-f4d3-c1a4-681a-feeaf9c6dc37": {
			"type": 35633,
			"uri": "https://www.tiltbrush.com/shaders/brushes/Icing-2f212815-f4d3-c1a4-681a-feeaf9c6dc37/Icing-2f212815-f4d3-c1a4-681a-feeaf9c6dc37-v10.0-vertex.glsl"
		},
		"fragment_2f212815-f4d3-c1a4-681a-feeaf9c6dc37": {
			"type": 35632,
			"uri": "https://www.tiltbrush.com/shaders/brushes/Icing-2f212815-f4d3-c1a4-681a-feeaf9c6dc37/Icing-2f212815-f4d3-c1a4-681a-feeaf9c6dc37-v10.0-fragment.glsl"
		}
	},
	"programs": {
		"program_2f212815-f4d3-c1a4-681a-feeaf9c6dc37": {
			"attributes": [
				"a_position",
				"a_normal",
				"a_color",
				"a_tangent",
				"a_texcoord0"
			],
			"vertexShader": "vertex_2f212815-f4d3-c1a4-681a-feeaf9c6dc37",
			"fragmentShader": "fragment_2f212815-f4d3-c1a4-681a-feeaf9c6dc37"
		}
	},
	"techniques": {
		"technique_2f212815-f4d3-c1a4-681a-feeaf9c6dc37": {
			"program": "program_2f212815-f4d3-c1a4-681a-feeaf9c6dc37",
			"parameters": {
				"position": {
					"type": 35665,
					"semantic": "POSITION"
				},
				"normal": {
					"type": 35665,
					"semantic": "NORMAL"
				},
				"color": {
					"type": 35666,
					"semantic": "COLOR"
				},
				"tangent": {
					"type": 35666,
					"semantic": "TANGENT"
				},
				"texcoord0": {
					"type": 35665,
					"semantic": "TEXCOORD_0"
				},
				"modelViewMatrix": {
					"type": 35676,
					"semantic": "MODELVIEW"
				},
				"projectionMatrix": {
					"type": 35676,
					"semantic": "PROJECTION"
				},
				"normalMatrix": {
					"type": 35675,
					"semantic": "MODELVIEWINVERSETRANSPOSE"
				},
				"SceneLight_0_matrix": {
					"type": 35676,
					"semantic": "MODELVIEW",
					"node": "node_SceneLight_0_i1"
				},
				"SceneLight_0_color": {
					"type": 35666,
					"node": "node_SceneLight_0_i1"
				},
				"SceneLight_1_matrix": {
					"type": 35676,
					"semantic": "MODELVIEW",
					"node": "node_SceneLight_1_i2"
				},
				"SceneLight_1_color": {
					"type": 35666,
					"node": "node_SceneLight_1_i2"
				},
				"ambient_light_color": {
					"type": 35666
				},
				"Shininess": {
					"type": 5126
				},
				"Cutoff": {
					"type": 5126
				},
				"Color": {
					"type": 35666
				},
				"SpecColor": {
					"type": 35666
				},
				"BumpMap_TexelSize": {
					"type": 35666
				},
				"BumpMap": {
					"type": 35678
				}
			},
			"attributes": {
				"a_position": "position",
				"a_normal": "normal",
				"a_color": "color",
				"a_tangent": "tangent",
				"a_texcoord0": "texcoord0"
			},
			"uniforms": {
				"u_modelViewMatrix": "modelViewMatrix",
				"u_projectionMatrix": "projectionMatrix",
				"u_normalMatrix": "normalMatrix",
				"u_SceneLight_0_matrix": "SceneLight_0_matrix",
				"u_SceneLight_0_color": "SceneLight_0_color",
				"u_SceneLight_1_matrix": "SceneLight_1_matrix",
				"u_SceneLight_1_color": "SceneLight_1_color",
				"u_ambient_light_color": "ambient_light_color",
				"u_Shininess": "Shininess",
				"u_Cutoff": "Cutoff",
				"u_Color": "Color",
				"u_SpecColor": "SpecColor",
				"u_BumpMap_TexelSize": "BumpMap_TexelSize",
				"u_BumpMap": "BumpMap"
			},
			"states": {
				"enable": [
					2929,
					2884
				],
				"functions": {
					"depthMask": [true]
				}
			}
		}
	},
	"samplers": {
		"sampler_LINEAR_LINEAR_MIPMAP_LINEAR_REPEAT": {
			"magFilter": 9729,
			"minFilter": 9987,
			"wrapS": 10497,
			"wrapT": 10497
		}
	},
	"textures": {
		"texture_2f212815-f4d3-c1a4-681a-feeaf9c6dc37_BumpMap": {
			"format": 6408,
			"internalFormat": 6408,
			"sampler": "sampler_LINEAR_LINEAR_MIPMAP_LINEAR_REPEAT",
			"source": "image_2f212815-f4d3-c1a4-681a-feeaf9c6dc37_BumpMap",
			"target": 3553,
			"type": 5121
		}
	},
	"images": {
		"image_2f212815-f4d3-c1a4-681a-feeaf9c6dc37_BumpMap": {
			"uri": "https://www.tiltbrush.com/shaders/brushes/Icing-2f212815-f4d3-c1a4-681a-feeaf9c6dc37/Icing-2f212815-f4d3-c1a4-681a-feeaf9c6dc37-v10.0-BumpMap.png"
		}
	},
	"materials": {
		"material_2f212815-f4d3-c1a4-681a-feeaf9c6dc37": {
			"technique": "technique_2f212815-f4d3-c1a4-681a-feeaf9c6dc37",
			"values": {
				"SceneLight_0_color": [0.7780392, 0.8156863, 0.9913726, 1],
				"SceneLight_1_color": [0.4282353, 0.4211765, 0.3458824, 1],
				"ambient_light_color": [0.3921569, 0.3921569, 0.3921569, 1],
				"Shininess": 0.15,
				"Cutoff": 0.5,
				"Color": [1, 1, 1, 1],
				"SpecColor": [0, 0, 0, 0],
				"BumpMap_TexelSize": [0.0009765625, 0.0078125, 1024, 128],
				"BumpMap": "texture_2f212815-f4d3-c1a4-681a-feeaf9c6dc37_BumpMap"
			},
			"name": "material_2f212815-f4d3-c1a4-681a-feeaf9c6dc37"
		}
	},
	"nodes": {
		"node_Icing_2f212815-f4d3-c1a4-681a-feeaf9c6dc37_0_i0": {
			"name": "node_Icing_2f212815-f4d3-c1a4-681a-feeaf9c6dc37_0_i0",
			"meshes": [
				"mesh_Icing_2f212815-f4d3-c1a4-681a-feeaf9c6dc37_0_i0"
			],
			"matrix": [1, 0, 0, 0, 0, 1, 0, 0, 0, 0, 1, 0, 0, 0, 0, 1]
		},
		"node_SceneLight_0_i1": {
			"name": "node_SceneLight_0_i1",
			"light": "SceneLight_0",
			"matrix": [0.898794, 0.2191856, -0.3796406, 0, -0.4383712, 0.449397, -0.7783785, 0, -1.490116E-08, 0.8660254, 0.4999999, 0, 0, 0, 0.065, 1]
		},
		"node_SceneLight_1_i2": {
			"name": "node_SceneLight_1_i2",
			"light": "SceneLight_1",
			"matrix": [0.7660444, -0.4924039, -0.4131759, 0, -0.6427876, -0.5868242, -0.4924039, 0, 8.940697E-08, 0.6427876, -0.7660446, 0, 0, 0, 0.065, 1]
		}
	},
	"scene": "defaultScene",
	"scenes": {
		"defaultScene": {
			"nodes": [
				"node_Icing_2f212815-f4d3-c1a4-681a-feeaf9c6dc37_0_i0",
				"node_SceneLight_0_i1",
				"node_SceneLight_1_i2"
			],
			"extras": {
				"TB_EnvironmentGuid": "ab080599-e465-4a6d-8587-43bf495af68b",
				"TB_Environment": "Standard",
				"TB_UseGradient": "true",
				"TB_SkyColorA": "0.2745098, 0.2745098, 0.3176471",
				"TB_SkyColorB": "0.03529412, 0.03529412, 0.08627451",
				"TB_SkyGradientDirection": "0, 1, 0",
				"TB_FogColor": "0.1647059, 0.1647059, 0.2078431",
				"TB_FogDensity": "0.0025",
				"TB_SkyColorHorizon": "0.2745098, 0.2745098, 0.3176471",
				"TB_SkyColorZenith": "0.03529412, 0.03529412, 0.08627451"
			}
		}
	}
}